<svg width="136" height="102" viewBox="0 0 136 102" fill="none" xmlns="http://www.w3.org/2000/svg">
<g clip-path="url(#clip0_51_2630)">
<path d="M63.4407 3.3999H64.9729C69.3899 3.3999 72.9757 6.98572 72.9757 11.4028V18.2647C72.9757 20.6281 71.0524 22.5514 68.6891 22.5514H59.6919C57.3286 22.5514 55.4053 20.6281 55.4053 18.2647V11.4028C55.4053 6.98572 58.9911 3.3999 63.4081 3.3999H63.4407Z" fill="white"/>
<path d="M76.8873 22.2092C68.477 23.2849 59.9525 23.2849 51.5259 22.2092C50.6946 22.2092 50.0264 21.5409 50.0264 20.7096C50.0264 19.8784 50.6946 19.2101 51.5259 19.2101C59.9362 18.1344 68.4607 18.1344 76.8873 19.2101C77.7186 19.2101 78.3869 19.8784 78.3869 20.7096C78.3869 21.5409 77.7186 22.2092 76.8873 22.2092Z" fill="white"/>
<path d="M40.5803 58.1394C46.4426 52.277 46.0092 42.3388 39.6121 35.9418C33.2151 29.5447 23.2769 29.1113 17.4145 34.9736C11.5522 40.836 11.9856 50.7742 18.3827 57.1712C24.7797 63.5683 34.7179 64.0017 40.5803 58.1394Z" fill="white"/>
<path d="M111.293 57.1735C117.69 50.7764 118.124 40.8382 112.261 34.9759C106.399 29.1135 96.4608 29.547 90.0638 35.944C83.6668 42.341 83.2333 52.2792 89.0957 58.1416C94.958 64.0039 104.896 63.5705 111.293 57.1735Z" fill="white"/>
<path d="M64.2072 149C94.012 149 118.174 122.634 118.174 90.111C118.174 57.5876 94.012 31.2222 64.2072 31.2222C34.4023 31.2222 10.2407 57.5876 10.2407 90.111C10.2407 122.634 34.4023 149 64.2072 149Z" fill="#FFA132"/>
<path fill-rule="evenodd" clip-rule="evenodd" d="M64.2073 34.6223C36.5535 34.6223 13.6408 59.18 13.6408 90.1111C13.6408 121.042 36.5535 145.6 64.2073 145.6C91.8611 145.6 114.774 121.042 114.774 90.1111C114.774 59.18 91.8611 34.6223 64.2073 34.6223ZM6.84082 90.1111C6.84082 55.9954 32.2514 27.8223 64.2073 27.8223C96.1631 27.8223 121.574 55.9954 121.574 90.1111C121.574 124.227 96.1631 152.4 64.2073 152.4C32.2514 152.4 6.84082 124.227 6.84082 90.1111Z" fill="white"/>
<path d="M46.0338 66.2816C49.1395 66.2816 51.657 63.764 51.657 60.6584C51.657 57.5528 49.1395 55.0352 46.0338 55.0352C42.9282 55.0352 40.4106 57.5528 40.4106 60.6584C40.4106 63.764 42.9282 66.2816 46.0338 66.2816Z" fill="white"/>
<path d="M82.3644 66.2816C85.47 66.2816 87.9876 63.764 87.9876 60.6584C87.9876 57.5528 85.47 55.0352 82.3644 55.0352C79.2588 55.0352 76.7412 57.5528 76.7412 60.6584C76.7412 63.764 79.2588 66.2816 82.3644 66.2816Z" fill="white"/>
<path d="M63.8182 88.4815C55.3589 88.4815 46.9975 86.9657 39.4184 83.9503C38.5708 83.6081 38.1796 82.6138 38.5382 81.7826C38.8968 80.9676 39.8259 80.609 40.6408 80.935C55.0655 86.6886 72.4404 86.6723 87.7779 80.8861C88.6092 80.5764 89.5219 80.9676 89.8642 81.7826C90.2065 82.6301 89.799 83.6081 88.9352 83.9341C80.8834 86.9657 72.2937 88.4815 63.8019 88.4815H63.8182Z" fill="white"/>
</g>
<defs>
<clipPath id="clip0_51_2630">
<rect width="136" height="102" fill="white"/>
</clipPath>
</defs>
</svg>
