<svg width="218" height="375" viewBox="0 0 218 375" fill="none" xmlns="http://www.w3.org/2000/svg">
<g filter="url(#filter0_di_675_1565)">
<path d="M191 4H19C10.7157 4 4 10.7157 4 19V348C4 356.284 10.7157 363 19 363H191C199.284 363 206 356.284 206 348V19C206 10.7157 199.284 4 191 4Z" fill="white"/>
</g>
<path fill-rule="evenodd" clip-rule="evenodd" d="M25 16C19.4772 16 15 20.4772 15 26V326C15 331.523 19.4772 336 25 336H185C190.523 336 195 331.523 195 326V26C195 20.4772 190.523 16 185 16H149.066C146.697 16 144.654 17.6616 144.171 19.9802L143.329 24.0198C142.846 26.3384 140.803 28 138.434 28H71.2356C68.7914 28 66.7055 26.2329 66.3037 23.822L65.6963 20.178C65.2945 17.7671 63.2086 16 60.7644 16H25Z" fill="#D9D9D9"/>
<rect x="74" y="20" width="61" height="3" rx="1.5" fill="#D9D9D9"/>
<defs>
<filter id="filter0_di_675_1565" x="0" y="0" width="218" height="375" filterUnits="userSpaceOnUse" color-interpolation-filters="sRGB">
<feFlood flood-opacity="0" result="BackgroundImageFix"/>
<feColorMatrix in="SourceAlpha" type="matrix" values="0 0 0 0 0 0 0 0 0 0 0 0 0 0 0 0 0 0 127 0" result="hardAlpha"/>
<feOffset dx="4" dy="4"/>
<feGaussianBlur stdDeviation="4"/>
<feComposite in2="hardAlpha" operator="out"/>
<feColorMatrix type="matrix" values="0 0 0 0 0 0 0 0 0 0 0 0 0 0 0 0 0 0 0.4 0"/>
<feBlend mode="normal" in2="BackgroundImageFix" result="effect1_dropShadow_675_1565"/>
<feBlend mode="normal" in="SourceGraphic" in2="effect1_dropShadow_675_1565" result="shape"/>
<feColorMatrix in="SourceAlpha" type="matrix" values="0 0 0 0 0 0 0 0 0 0 0 0 0 0 0 0 0 0 127 0" result="hardAlpha"/>
<feOffset/>
<feGaussianBlur stdDeviation="4"/>
<feComposite in2="hardAlpha" operator="arithmetic" k2="-1" k3="1"/>
<feColorMatrix type="matrix" values="0 0 0 0 0 0 0 0 0 0 0 0 0 0 0 0 0 0 0.6 0"/>
<feBlend mode="normal" in2="shape" result="effect2_innerShadow_675_1565"/>
</filter>
</defs>
</svg>
